<svg width="748" height="320" viewBox="0 0 748 320" fill="none" xmlns="http://www.w3.org/2000/svg" xmlns:xlink="http://www.w3.org/1999/xlink">
<line x1="-0.626" y1="0" x2="-0.626" y2="320" stroke="#CCCCCC" stroke-width="1" stroke-miterlimit="3.999327"/>
<line x1="82.435" y1="0" x2="82.435" y2="320" stroke="#CCCCCC" stroke-width="1" stroke-miterlimit="3.999327"/>
<line x1="165.496" y1="0" x2="165.496" y2="320" stroke="#CCCCCC" stroke-width="1" stroke-miterlimit="3.999327"/>
<line x1="248.556" y1="0" x2="248.556" y2="320" stroke="#CCCCCC" stroke-width="1" stroke-miterlimit="3.999327"/>
<line x1="331.617" y1="0" x2="331.617" y2="320" stroke="#CCCCCC" stroke-width="1" stroke-miterlimit="3.999327"/>
<line x1="414.678" y1="0" x2="414.678" y2="320" stroke="#CCCCCC" stroke-width="1" stroke-miterlimit="3.999327"/>
<line x1="497.739" y1="0" x2="497.739" y2="320" stroke="#CCCCCC" stroke-width="1" stroke-miterlimit="3.999327"/>
<line x1="580.799" y1="0" x2="580.799" y2="320" stroke="#CCCCCC" stroke-width="1" stroke-miterlimit="3.999327"/>
<line x1="663.86" y1="0" x2="663.86" y2="320" stroke="#CCCCCC" stroke-width="1" stroke-miterlimit="3.999327"/>
<line x1="746.921" y1="0" x2="746.921" y2="320" stroke="#CCCCCC" stroke-width="1" stroke-miterlimit="3.999327"/>
<path d="M82.535,219.84L81.956,219.024L81.944,219.033L81.932,219.042L82.535,219.84ZM164.695,161.6L165.273,162.416L165.359,162.356L165.43,162.279L164.695,161.6ZM246.856,72.64L247.574,71.944L246.838,71.185L246.12,71.962L246.856,72.64ZM329.016,157.44L328.298,158.136L329.096,158.961L329.804,158.055L329.016,157.44ZM411.176,52.16L411.812,51.389L411.02,50.735L410.388,51.545L411.176,52.16ZM493.336,120L492.7,120.771L493.268,121.242L493.886,120.835L493.336,120ZM575.496,65.92L576.126,65.143L575.558,64.683L574.946,65.085L575.496,65.92ZM657.656,132.48L657.028,133.257L657.086,133.305L657.152,133.344L657.656,132.48ZM0.977,282.718L83.137,220.638L81.932,219.042L-0.229,281.122L0.977,282.718ZM83.113,220.656L165.273,162.416L164.117,160.784L81.956,219.024L83.113,220.656ZM165.43,162.279L247.59,73.319L246.12,71.962L163.96,160.922L165.43,162.279ZM246.136,73.336L328.298,158.136L329.734,156.744L247.574,71.944L246.136,73.336ZM329.804,158.055L411.964,52.775L410.388,51.545L328.228,156.825L329.804,158.055ZM410.54,52.931L492.7,120.771L493.972,119.229L411.812,51.389L410.54,52.931ZM493.886,120.835L576.046,66.755L574.946,65.085L492.786,119.165L493.886,120.835ZM574.866,66.697L657.028,133.257L658.286,131.703L576.126,65.143L574.866,66.697ZM657.152,133.344L739.312,181.344L740.322,179.617L658.162,131.617L657.152,133.344Z" fill="#D5DC4C"/>
</svg>
