<svg width="742" height="234" viewBox="0 0 742 234" fill="none" xmlns="http://www.w3.org/2000/svg" xmlns:xlink="http://www.w3.org/1999/xlink">
<path d="M82.535,169.84L81.956,169.024L81.944,169.033L81.932,169.042L82.535,169.84ZM164.695,111.6L165.273,112.416L165.359,112.356L165.43,112.279L164.695,111.6ZM246.856,22.64L247.574,21.944L246.838,21.185L246.12,21.962L246.856,22.64ZM329.016,107.44L328.298,108.136L329.096,108.961L329.804,108.055L329.016,107.44ZM411.176,2.16L411.812,1.389L411.02,0.735L410.388,1.545L411.176,2.16ZM493.336,70L492.7,70.771L493.268,71.242L493.886,70.835L493.336,70ZM575.496,15.92L576.126,15.143L575.558,14.683L574.946,15.085L575.496,15.92ZM657.656,82.48L657.028,83.257L657.086,83.305L657.152,83.344L657.656,82.48ZM0.977,232.718L83.137,170.638L81.932,169.042L-0.229,231.122L0.977,232.718ZM83.113,170.656L165.273,112.416L164.117,110.784L81.956,169.024L83.113,170.656ZM165.43,112.279L247.59,23.319L246.12,21.962L163.96,110.922L165.43,112.279ZM246.136,23.336L328.298,108.136L329.734,106.744L247.574,21.944L246.136,23.336ZM329.804,108.055L411.964,2.775L410.388,1.545L328.228,106.825L329.804,108.055ZM410.54,2.931L492.7,70.771L493.972,69.229L411.812,1.389L410.54,2.931ZM493.886,70.835L576.046,16.755L574.946,15.085L492.786,69.165L493.886,70.835ZM574.866,16.697L657.028,83.257L658.286,81.703L576.126,15.143L574.866,16.697ZM657.152,83.344L739.312,131.344L740.322,129.617L658.162,81.617L657.152,83.344Z" fill="#D5DC4C"/>
</svg>
