<svg width="738" height="304" viewBox="0 0 738 304" fill="none" xmlns="http://www.w3.org/2000/svg" xmlns:xlink="http://www.w3.org/1999/xlink">
<path d="M81.747,75.6L82.547,74.999L81.434,73.518L80.807,75.261L81.747,75.6ZM163.51,184.4L162.711,185.001L163.729,186.356L164.422,184.809L163.51,184.4ZM245.273,2L246.115,1.462L245.117,-0.1L244.359,1.591L245.273,2ZM327.035,130L326.193,130.538L326.199,130.548L327.035,130ZM408.797,254.8L407.961,255.348L409.047,257.006L409.735,255.148L408.797,254.8ZM490.559,34L490.481,33.003L489.845,33.053L489.623,33.653L490.559,34ZM572.323,27.6L573.205,27.13L572.897,26.552L572.245,26.603L572.323,27.6ZM654.085,181.2L653.203,181.67L653.763,182.722L654.701,181.987L654.085,181.2ZM0.926,303.138L82.688,75.939L80.807,75.261L-0.956,302.462L0.926,303.138ZM80.948,76.201L162.711,185.001L164.309,183.799L82.547,74.999L80.948,76.201ZM164.422,184.809L246.185,2.409L244.359,1.591L162.597,183.991L164.422,184.809ZM244.429,2.538L326.193,130.538L327.877,129.462L246.115,1.462L244.429,2.538ZM326.199,130.548L407.961,255.348L409.633,254.252L327.871,129.452L326.199,130.548ZM409.735,255.148L491.497,34.347L489.623,33.653L407.859,254.452L409.735,255.148ZM490.637,34.997L572.401,28.597L572.245,26.603L490.481,33.003L490.637,34.997ZM571.439,28.07L653.203,181.67L654.967,180.73L573.205,27.13L571.439,28.07ZM654.701,181.987L736.463,117.987L735.231,116.413L653.469,180.413L654.701,181.987Z" fill="#296589"/>
</svg>
