<svg width="738" height="228" viewBox="0 0 738 228" fill="none" xmlns="http://www.w3.org/2000/svg" xmlns:xlink="http://www.w3.org/1999/xlink">
<path d="M81.747,212.8L80.918,213.358L81.532,214.272L82.382,213.572L81.747,212.8ZM163.51,145.6L164.209,144.885L163.568,144.258L162.875,144.827L163.51,145.6ZM245.273,225.6L244.573,226.314L244.949,226.682L245.465,226.582L245.273,225.6ZM327.035,209.6L327.227,210.582L327.689,210.492L327.913,210.078L327.035,209.6ZM408.797,59.2L408.221,58.382L408.031,58.517L407.919,58.722L408.797,59.2ZM490.559,1.6L490.893,0.657L490.405,0.486L489.983,0.783L490.559,1.6ZM572.323,30.4L571.991,31.343L572.007,31.349L572.023,31.354L572.323,30.4ZM654.085,56L654.481,55.082L654.433,55.061L654.383,55.046L654.085,56ZM-0.845,91.758L80.918,213.358L82.577,212.242L0.815,90.642L-0.845,91.758ZM82.382,213.572L164.145,146.373L162.875,144.827L81.113,212.028L82.382,213.572ZM162.811,146.315L244.573,226.314L245.971,224.886L164.209,144.885L162.811,146.315ZM245.465,226.582L327.227,210.582L326.843,208.618L245.081,224.618L245.465,226.582ZM327.913,210.078L409.675,59.678L407.919,58.722L326.157,209.122L327.913,210.078ZM409.373,60.018L491.135,2.418L489.983,0.783L408.221,58.382L409.373,60.018ZM490.227,2.543L571.991,31.343L572.655,29.457L490.893,0.657L490.227,2.543ZM572.023,31.354L653.785,56.954L654.383,55.046L572.621,29.446L572.023,31.354ZM653.689,56.919L735.451,92.118L736.243,90.282L654.481,55.082L653.689,56.919Z" fill="#008000"/>
</svg>
