<svg width="736" height="254" viewBox="0 0 736 254" fill="none" xmlns="http://www.w3.org/2000/svg" xmlns:xlink="http://www.w3.org/1999/xlink">
<path d="M81.354,39.92L81.319,38.92L80.927,38.934L80.649,39.21L81.354,39.92ZM162.917,37.04L163.825,36.62L163.546,36.017L162.882,36.04L162.917,37.04ZM244.48,213.36L243.574,213.78L243.842,214.36L244.48,214.36L244.48,213.36ZM326.044,213.36L326.114,212.362L326.08,212.36L326.044,212.36L326.044,213.36ZM407.608,219.12L407.538,220.118L407.932,220.146L408.238,219.896L407.608,219.12ZM489.172,152.88L489.938,152.238L489.306,151.482L488.54,152.103L489.172,152.88ZM570.734,250.48L569.968,251.122L570.726,252.028L571.494,251.13L570.734,250.48ZM652.298,155.12L653.058,155.77L653.132,155.684L653.184,155.584L652.298,155.12ZM0.495,121.589L82.058,40.629L80.649,39.21L-0.914,120.17L0.495,121.589ZM81.389,40.919L162.953,38.039L162.882,36.04L81.319,38.92L81.389,40.919ZM162.01,37.459L243.574,213.78L245.388,212.94L163.825,36.62L162.01,37.459ZM244.48,214.36L326.044,214.36L326.044,212.36L244.48,212.36L244.48,214.36ZM325.974,214.358L407.538,220.118L407.678,218.122L326.114,212.362L325.974,214.358ZM408.238,219.896L489.802,153.656L488.54,152.103L406.978,218.344L408.238,219.896ZM488.404,153.521L569.968,251.122L571.502,249.838L489.938,152.238L488.404,153.521ZM571.494,251.13L653.058,155.77L651.538,154.47L569.974,249.83L571.494,251.13ZM653.184,155.584L734.748,0.064L732.976,-0.865L651.412,154.655L653.184,155.584Z" fill="#DC3525"/>
</svg>
