<svg width="742" height="254" viewBox="0 0 742 254" fill="none" xmlns="http://www.w3.org/2000/svg" xmlns:xlink="http://www.w3.org/1999/xlink">
<path d="M82.535,39.92L82.5,38.92L82.11,38.934L81.833,39.207L82.535,39.92ZM164.695,37.04L165.601,36.617L165.322,36.017L164.66,36.04L164.695,37.04ZM246.856,213.36L245.948,213.782L246.218,214.36L246.856,214.36L246.856,213.36ZM329.016,213.36L329.086,212.362L329.05,212.36L329.016,212.36L329.016,213.36ZM411.176,219.12L411.106,220.118L411.498,220.146L411.804,219.898L411.176,219.12ZM493.336,152.88L494.102,152.236L493.47,151.487L492.708,152.101L493.336,152.88ZM575.496,250.48L574.732,251.124L575.488,252.022L576.254,251.132L575.496,250.48ZM657.656,155.12L658.414,155.772L658.488,155.687L658.54,155.587L657.656,155.12ZM1.076,121.592L83.236,40.632L81.833,39.207L-0.328,120.167L1.076,121.592ZM82.57,40.919L164.73,38.039L164.66,36.04L82.5,38.92L82.57,40.919ZM163.788,37.462L245.948,213.782L247.762,212.938L165.601,36.617L163.788,37.462ZM246.856,214.36L329.016,214.36L329.016,212.36L246.856,212.36L246.856,214.36ZM328.946,214.358L411.106,220.118L411.246,218.122L329.086,212.362L328.946,214.358ZM411.804,219.898L493.964,153.658L492.708,152.101L410.548,218.342L411.804,219.898ZM492.572,153.524L574.732,251.124L576.262,249.836L494.102,152.236L492.572,153.524ZM576.254,251.132L658.414,155.772L656.9,154.467L574.738,249.828L576.254,251.132ZM658.54,155.587L740.702,0.067L738.932,-0.868L656.772,154.652L658.54,155.587Z" fill="#DC3525"/>
</svg>
